<svg xmlns="http://www.w3.org/2000/svg" width="800" height="1200" viewBox="0 0 800 1200">
  <defs>
    <linearGradient id="bg" x1="0" y1="0" x2="0" y2="1">
      <stop offset="0" stop-color="#33406B"/>
      <stop offset="1" stop-color="#232C4C"/>
    </linearGradient>
    <radialGradient id="glow" cx="0.5" cy="0.38" r="0.55">
      <stop offset="0" stop-color="#FFFFFF" stop-opacity="0.16"/>
      <stop offset="1" stop-color="#FFFFFF" stop-opacity="0"/>
    </radialGradient>
    <filter id="grain"><feTurbulence type="fractalNoise" baseFrequency="0.9" numOctaves="2" stitchTiles="stitch"/>
      <feColorMatrix type="matrix" values="0 0 0 0 1  0 0 0 0 1  0 0 0 0 1  0 0 0 0.05 0"/></filter>
    <linearGradient id="spine" x1="0" y1="0" x2="1" y2="0">
      <stop offset="0" stop-color="#000000" stop-opacity="0.35"/>
      <stop offset="0.06" stop-color="#000000" stop-opacity="0.08"/>
      <stop offset="0.1" stop-color="#000000" stop-opacity="0"/>
    </linearGradient>
  </defs>

  <rect width="800" height="1200" fill="url(#bg)"/>
  <rect width="800" height="1200" fill="url(#glow)"/>
  <rect width="800" height="1200" filter="url(#grain)"/>

  <!-- 书脊阴影 -->
  <rect width="800" height="1200" fill="url(#spine)"/>
  <line x1="88" y1="40" x2="88" y2="1160" stroke="#D9B45B" stroke-width="2" opacity="0.35"/>

  <!-- 双线框 + 角饰 -->
  <rect x="46" y="46" width="708" height="1108" fill="none" stroke="#D9B45B" stroke-width="3" opacity="0.6"/>
  <rect x="62" y="62" width="676" height="1076" fill="none" stroke="#D9B45B" stroke-width="1" opacity="0.45"/>
  <g fill="#D9B45B" opacity="0.85">
    <rect x="54" y="50" width="16" height="16" transform="rotate(45 62 58)"/>
    <rect x="730" y="50" width="16" height="16" transform="rotate(45 738 58)"/>
    <rect x="54" y="1134" width="16" height="16" transform="rotate(45 62 1142)"/>
    <rect x="730" y="1134" width="16" height="16" transform="rotate(45 738 1142)"/>
  </g>

  <!-- 顶部系列签 -->
  <text x="400" y="150" text-anchor="middle" font-family="Georgia, serif" font-size="22" letter-spacing="6" fill="#D9B45B">READS WITH COLIN</text>
  <line x1="300" y1="176" x2="500" y2="176" stroke="#D9B45B" stroke-width="1.5" opacity="0.6"/>

  <!-- motif -->
  <g stroke="#D9B45B" stroke-width="11" fill="none" stroke-linecap="round">
      <path d="M400 560 L270 610 L270 480 L400 430 Z"/>
      <path d="M400 560 L530 610 L530 480 L400 430 Z"/>
      <path d="M400 430 L400 560"/>
      <circle cx="400" cy="340" r="40"/>
      <line x1="400" y1="270" x2="400" y2="286"/><line x1="330" y1="340" x2="346" y2="340"/>
      <line x1="470" y1="340" x2="454" y2="340"/><line x1="348" y1="288" x2="359" y2="299"/>
      <line x1="452" y1="288" x2="441" y2="299"/>
    </g>

  <!-- 中文主标题 -->
  <text x="400" y="810" text-anchor="middle" font-family="'Noto Serif SC','Songti SC','SimSun',serif" font-size="82" font-weight="700" fill="#F5F1E6">习而新之</text>

  <!-- 英文副题 -->
  <text x="400" y="878" text-anchor="middle" font-family="Georgia, serif" font-size="38" font-style="italic" fill="#D9B45B">A Reading OS</text>

  <line x1="290" y1="940" x2="510" y2="940" stroke="#D9B45B" stroke-width="2" opacity="0.55"/>

  <!-- 来源行 -->
  <text x="400" y="1000" text-anchor="middle" font-family="'Noto Serif SC',serif" font-size="30" fill="#E9E2D2" opacity="0.92">芒格 × 资治通鉴</text>

  <!-- 底部品牌 -->
  <text x="400" y="1108" text-anchor="middle" font-family="Georgia, serif" font-size="24" font-style="italic" fill="#F5F1E6" opacity="0.85">Reads <tspan fill="#D9B45B">with</tspan> Colin</text>
</svg>